<svg id="Layer_1" data-name="Layer 1" xmlns="http://www.w3.org/2000/svg" xmlns:xlink="http://www.w3.org/1999/xlink" viewBox="0 0 600 600"><defs><style>.cls-1,.cls-4,.cls-5,.cls-6,.cls-7{fill:none;}.cls-2{clip-path:url(#clip-path);}.cls-3{fill:#fff;}.cls-4,.cls-5,.cls-6{stroke:#5d6071;}.cls-4{stroke-width:6px;}.cls-5,.cls-6{stroke-width:6.6px;}.cls-6,.cls-7{stroke-linecap:round;}.cls-6{stroke-linejoin:round;}.cls-7{stroke:#ec9a54;stroke-width:17.56px;}</style><clipPath id="clip-path"><rect class="cls-1" x="94.05" y="145.97" width="432.7" height="322.34"/></clipPath></defs><title>seller icons</title><g class="cls-2"><path class="cls-3" d="M351.47,213.9h82.07s17,0,27.35,13.5l53.55,69.94s10.34,13.5,9.23,30.47l-4.85,74.06s-1.11,17-18.12,17H368.48s-17,0-17-17V220.7"/><path class="cls-4" d="M351.47,213.9h82.07s17,0,27.35,13.5l53.55,69.94s10.34,13.5,9.23,30.47l-4.85,74.06s-1.11,17-18.12,17H368.48s-17,0-17-17V220.7"/><path class="cls-3" d="M430.55,465a45.07,45.07,0,1,0-45.07-45.07A45.07,45.07,0,0,0,430.55,465"/><circle class="cls-5" cx="430.55" cy="419.94" r="45.07"/><path class="cls-3" d="M114.36,149.27s-17,0-17,17V401s0,17,17,17h222.8s17,0,17-17V166.28s0-17-17-17Z"/><path class="cls-6" d="M114.36,149.27s-17,0-17,17V401s0,17,17,17h222.8s17,0,17-17V166.28s0-17-17-17Z"/><path class="cls-3" d="M203.65,465a45.07,45.07,0,1,0-45.08-45.07A45.07,45.07,0,0,0,203.65,465"/><circle class="cls-5" cx="203.65" cy="419.94" r="45.07"/></g><polyline class="cls-7" points="151.39 281.03 205.92 337.55 300.12 205.67"/><g class="cls-2"><path class="cls-4" d="M464,242.81H406.31s-12,0-12,12v27.12s0,17,17,17H498s17,0,6.76-13.56l-32.17-42.56Z"/></g></svg>