<svg id="Layer_1" data-name="Layer 1" xmlns="http://www.w3.org/2000/svg" xmlns:xlink="http://www.w3.org/1999/xlink" viewBox="0 0 586.32 600"><defs><style>.cls-1,.cls-4,.cls-5,.cls-6,.cls-7{fill:none;}.cls-2{clip-path:url(#clip-path);}.cls-3{fill:#fff;}.cls-4,.cls-5{stroke:#5d6071;}.cls-4,.cls-6{stroke-linecap:round;}.cls-4,.cls-5,.cls-6,.cls-7{stroke-linejoin:round;}.cls-4,.cls-5,.cls-6{stroke-width:6.61px;}.cls-6,.cls-7{stroke:#ec9a54;}.cls-7{stroke-width:1.87px;}.cls-8{fill:#ec9a54;}</style><clipPath id="clip-path"><rect class="cls-1" x="163.5" y="79.49" width="259.59" height="441.44"/></clipPath></defs><title>seller icons</title><g class="cls-2"><path class="cls-3" d="M244.64,120.61h97.3m77.84,37.81h-253M419.78,442h-253m253,37.81c0,20.88-17.42,37.82-38.92,37.82H205.72c-21.49,0-38.92-16.94-38.92-37.82V120.61c0-20.88,17.43-37.81,38.92-37.81H380.86c21.5,0,38.92,16.93,38.92,37.81Z"/><path class="cls-4" d="M244.64,120.61h97.3m77.84,37.81h-253M419.78,442h-253m253,37.81c0,20.88-17.42,37.82-38.92,37.82H205.72c-21.49,0-38.92-16.94-38.92-37.82V120.61c0-20.88,17.43-37.81,38.92-37.81H380.86c21.5,0,38.92,16.93,38.92,37.81Z"/><path class="cls-5" d="M293.29,490.35A17.38,17.38,0,1,1,310.67,473,17.36,17.36,0,0,1,293.29,490.35Z"/><path class="cls-3" d="M374,313.15a80.74,80.74,0,1,1-80.74-80.82A80.78,80.78,0,0,1,374,313.15M364.55,237l-16.61,16.62m10.5-22.74,12.21,12.22m-74.83-36.68v25.9m-9.69-25.9h19.38"/><path class="cls-6" d="M374,313.15a80.74,80.74,0,1,1-80.74-80.82A80.78,80.78,0,0,1,374,313.15ZM364.55,237l-16.61,16.62m10.5-22.74,12.21,12.22m-74.83-36.68v25.9m-9.69-25.9h19.38"/><path class="cls-7" d="M292.23,244.15l.25,10M287,244.42l.76,10m-6.23-9.27,1.76,9.87m-6.91-8.79,2.26,9.77m-7.54-8.19,3.21,9.48m-8.35-7.52,4.13,9.13M261.19,252l4.57,8.92m-9.33-6.17,5.41,8.43m-9.75-5.47,5.81,8.16m-10.07-4.7,6.56,7.57M243.84,265l7.25,6.91m-10.78-3,7.58,6.55M237,273.2l8.16,5.8m-11.18-1.21,8.68,5m-11.2-.38,8.91,4.56m-11.18.45,9.32,3.67m-11.11,1.27,9.49,3.21m-10.94,2.11,9.76,2.25m-10.8,3.16,9.93,1.26m-10.5,4,10,.76m-10.18,4.76,10-.26m-9.77,5.52,10-.76M225,324.56l9.86-1.76m-8.82,6.92,9.76-2.25M227.56,335l9.49-3.21M229.38,340l9.32-3.67m-7,8.66,8.92-4.57m-6.23,9.36,8.43-5.41m-5.5,9.77,8.16-5.81m-4.76,10.11,7.58-6.55m-4,10.42,7.25-6.91M248.3,366l6.57-7.56m-2.27,11,5.81-8.16M257,372.33l5.41-8.43M261.75,375l4.57-8.91m.41,11.23,3.68-9.31m1.26,11.14,3.21-9.49m2.08,11,2.25-9.76m2.91,10.81,1.76-9.86m3.72,10.52.75-10m4.5,10.23.25-10m5.27,9.82-.77-10m6,9.42-1.26-9.94m6.68,8.89-2.26-9.76m7.57,8.31-3.21-9.49m8.15,7.69-3.68-9.32m8.69,7.05-4.57-8.91m9.18,6.39-5-8.68m9.58,5.65-5.81-8.16m10.15,4.8-6.56-7.57m10.44,4-6.91-7.24m10.67,3.25-7.57-6.56m11,2.29-8.16-5.81m11.12,1.46-8.44-5.4m11.18.64-8.92-4.56m11.19-.18-9.14-4.12m11.09-1-9.48-3.21m11.05-2.07-9.76-2.25m10.84-2.91-9.87-1.76m10.59-3.7-10-.76m10.26-4.5-10-.25"/><path class="cls-8" d="M328.34,316.49c-.11,2.19-.29,4.4-.56,6.65a57.33,57.33,0,0,1-1.2,6.66,27.39,27.39,0,0,1-2.11,5.84,12.33,12.33,0,0,1-3.27,4.14,7.77,7.77,0,0,1-9.34,0,12.3,12.3,0,0,1-3.26-4.14,28,28,0,0,1-2.16-5.84,50.12,50.12,0,0,1-1.26-6.66c-.27-2.25-.45-4.46-.56-6.65s-.15-4.15-.15-5.89.06-3.61.15-5.8.29-4.41.56-6.7a49.21,49.21,0,0,1,1.26-6.7,27.83,27.83,0,0,1,2.16-5.85,12.26,12.26,0,0,1,3.26-4.13,7.73,7.73,0,0,1,9.34,0,12.28,12.28,0,0,1,3.27,4.13,27.28,27.28,0,0,1,2.11,5.85,56.14,56.14,0,0,1,1.2,6.7c.27,2.29.45,4.52.56,6.7s.15,4.12.15,5.8-.05,3.71-.15,5.89m6.52-18.65A45.83,45.83,0,0,0,332,286a23.28,23.28,0,0,0-5.82-8.75,15.31,15.31,0,0,0-19.29,0,23.19,23.19,0,0,0-5.83,8.75,47.94,47.94,0,0,0-2.92,11.85,102.08,102.08,0,0,0,0,25.51,48,48,0,0,0,2.92,11.86,23.15,23.15,0,0,0,5.83,8.74,15.31,15.31,0,0,0,19.29,0,23.24,23.24,0,0,0,5.82-8.74,45.91,45.91,0,0,0,2.86-11.86,107.41,107.41,0,0,0,0-25.51m-53.44,38.69a10.07,10.07,0,0,1-8.89,4.81,10.53,10.53,0,0,1-9-4.61q-3.33-4.61-3.32-12.42a24.17,24.17,0,0,1,.91-6.76,18.05,18.05,0,0,1,2.56-5.51,12.07,12.07,0,0,1,4-3.66,10.42,10.42,0,0,1,14,3.46,17.28,17.28,0,0,1,2.21,5.41,29.61,29.61,0,0,1,.75,6.86q0,7.62-3.16,12.42m8.69-22.67a20.31,20.31,0,0,0-4-7,15.27,15.27,0,0,0-5.52-4,16.17,16.17,0,0,0-6.18-1.25,12.35,12.35,0,0,0-5.08,1,12.16,12.16,0,0,0-4,2.76l-.21-.1L280.67,275H273l-14.67,29.84a54.62,54.62,0,0,0-3.76,9.65,35.9,35.9,0,0,0-1.36,9.84,31.62,31.62,0,0,0,1.31,9.39,21.15,21.15,0,0,0,3.76,7.29,16.76,16.76,0,0,0,6,4.67,19.08,19.08,0,0,0,8.09,1.66,18.51,18.51,0,0,0,7.88-1.66,17.19,17.19,0,0,0,6.08-4.67,21.49,21.49,0,0,0,3.87-7.29,35.2,35.2,0,0,0-.15-19.89"/></g></svg>