<svg id="Layer_1" data-name="Layer 1" xmlns="http://www.w3.org/2000/svg" xmlns:xlink="http://www.w3.org/1999/xlink" viewBox="0 0 600 600"><defs><style>.cls-1,.cls-11,.cls-7,.cls-9{fill:none;}.cls-2{clip-path:url(#clip-path);}.cls-3{clip-path:url(#clip-path-2);}.cls-4{opacity:0.8;}.cls-5{clip-path:url(#clip-path-3);}.cls-6{fill:#fff;}.cls-7{stroke:#e78024;stroke-width:7.54px;}.cls-8{fill:#e78024;}.cls-9{stroke:#f58a25;stroke-width:11.32px;}.cls-10{fill:#eea05f;}.cls-11{stroke:#5d6071;stroke-linecap:round;stroke-linejoin:round;stroke-width:6.6px;}</style><clipPath id="clip-path"><rect class="cls-1" x="52.57" y="114.43" width="451.62" height="371.14"/></clipPath><clipPath id="clip-path-2"><rect class="cls-1" x="52.57" y="114.43" width="451.62" height="371.14"/></clipPath><clipPath id="clip-path-3"><rect class="cls-1" x="61.34" y="-5.94" width="514.08" height="425.91"/></clipPath></defs><title>seller icons</title><g class="cls-2"><g class="cls-3"><g class="cls-4"><g class="cls-5"><rect class="cls-6" x="218.59" y="215.38" width="211.14" height="48.11" transform="translate(-36.65 59.91) rotate(-10)"/><rect class="cls-7" x="218.59" y="215.38" width="211.14" height="48.11" transform="translate(-36.65 59.91) rotate(-10)"/><rect class="cls-6" x="249.83" y="262.54" width="175.97" height="108.69" transform="translate(-49.9 63.49) rotate(-10)"/><rect class="cls-7" x="249.83" y="262.54" width="175.97" height="108.69" transform="translate(-49.9 63.49) rotate(-10)"/><rect class="cls-8" x="322.59" y="218.17" width="26.73" height="150.65" transform="translate(-45.86 62.79) rotate(-10)"/><path class="cls-9" d="M316.9,215.39S268.7,137,242.69,174.2c0,0-28.08,35.7,75.14,46.45"/><path class="cls-9" d="M322.06,211.07S340.54,121,377.69,147c0,0,38.61,24-54.7,69.35"/></g></g><path class="cls-10" d="M391.7,453.11A29.12,29.12,0,1,0,420.81,424a29.14,29.14,0,0,0-29.11,29.16"/><ellipse class="cls-11" cx="420.81" cy="453.11" rx="29.12" ry="29.17"/><path class="cls-10" d="M195.15,453.11A29.12,29.12,0,1,0,224.26,424a29.14,29.14,0,0,0-29.11,29.16"/><ellipse class="cls-11" cx="224.26" cy="453.11" rx="29.12" ry="29.17"/><polyline class="cls-11" points="55.87 117.73 142.92 117.73 216.99 423.95 420.81 423.95"/><polyline class="cls-11" points="209.7 394.79 445.82 394.79 500.89 219.81 167.61 219.81"/></g></g></svg>