<?xml version="1.0" encoding="UTF-8"?>
<svg width="234px" height="66px" viewBox="0 0 234 66" version="1.1" xmlns="http://www.w3.org/2000/svg" xmlns:xlink="http://www.w3.org/1999/xlink">
    <!-- Generator: Sketch 48.2 (47327) - http://www.bohemiancoding.com/sketch -->
    <title>logo-orange</title>
    <desc>Created with Sketch.</desc>
    <defs></defs>
    <g id="Page-1" stroke="none" stroke-width="1" fill="none" fill-rule="evenodd">
        <g id="logo-orange" fill="#FFFFFF" fill-rule="nonzero">
            <path d="M124.78,10.88 C113.808385,10.8799944 104.911038,19.7683905 104.9,30.74 C104.9,30.74 104.9,30.74 104.9,30.86 L104.9,62 C104.9,62 104.9,62 104.9,62 C104.861973,63.0477707 105.2518,64.065933 105.979853,64.820392 C106.707906,65.5748511 107.71154,66.0006898 108.76,66 L111.88,66 C112.310782,66 112.66,65.6507821 112.66,65.22 L112.66,46.48 C119.531302,51.7669813 129.038096,51.9856307 136.145197,47.0201426 C143.252299,42.0546546 146.316997,33.0527351 143.716104,24.7821656 C141.115211,16.5115962 133.449888,10.884008 124.78,10.88 M124.78,43.66 C117.644481,43.66 111.86,37.875519 111.86,30.74 C111.86,23.604481 117.644481,17.82 124.78,17.82 C131.915519,17.82 137.7,23.604481 137.7,30.74 C137.7,37.875519 131.915519,43.66 124.78,43.66" id="Shape"></path>
            <path d="M189.82,31.26 C189.82,31.12 189.82,30.98 189.82,30.82 C189.849852,21.5786969 183.507633,13.5354707 174.514226,11.4091595 C165.520818,9.28284824 156.248139,13.634244 152.136326,21.9104493 C148.024514,30.1866546 150.158016,40.204908 157.285139,46.0876532 C164.412262,51.9703984 174.653303,52.1661237 182,46.56 L182,47.86 C182,47.86 182,47.86 182,47.86 C181.977271,48.9222716 182.39342,49.9469383 183.150387,50.6925509 C183.907354,51.4381636 184.938193,51.8387799 186,51.8 L189.12,51.8 C189.535086,51.7786858 189.860547,51.4356326 189.86,51.02 L189.86,46 L189.86,31.26 L189.82,31.26 Z M170,43.74 C162.864481,43.74 157.08,37.955519 157.08,30.82 C157.08,23.684481 162.864481,17.9 170,17.9 C177.135519,17.9 182.92,23.684481 182.92,30.82 C182.92,34.246597 181.55879,37.5328496 179.13582,39.9558196 C176.71285,42.3787896 173.426597,43.74 170,43.74 Z" id="Shape"></path>
            <path d="M233.22,14.5 L231.06,12.34 C229.554759,10.8451092 227.125241,10.8451092 225.62,12.34 L212.4,25.58 L199,12.2 C197.494759,10.7051092 195.065241,10.7051092 193.56,12.2 L191.38,14.4 C191.077443,14.7042525 191.077443,15.1957475 191.38,15.5 L193.38,17.5 L208.16,32.28 L208.16,47.7 C208.203361,49.8038052 209.915774,51.4896001 212.02,51.5 L215.12,51.5 C215.543091,51.5001391 215.889152,51.1629519 215.9,50.74 L215.9,46 L215.9,32.66 L217.6,30.96 L229.6,18.96 L233.06,15.5 C233.32483,15.2039113 233.32483,14.7560887 233.06,14.46" id="Shape"></path>
            <path d="M6.96,30.8 C6.96,23.664481 12.744481,17.88 19.88,17.88 C27.015519,17.88 32.8,23.664481 32.8,30.8 C32.8,37.935519 27.015519,43.72 19.88,43.72 C12.744481,43.72 6.96,37.935519 6.96,30.8 M0,30.8 C1.34459126e-15,41.7794208 8.90057917,50.68 19.88,50.68 C30.8594208,50.68 39.76,41.7794208 39.76,30.8 C39.76,19.8205792 30.8594208,10.92 19.88,10.92 C8.90057917,10.92 1.34459126e-15,19.8205792 0,30.8" id="Shape"></path>
            <path d="M44.56,12.24 L44.42,12.4 L42.42,14.4 C42.117443,14.7042525 42.117443,15.1957475 42.42,15.5 L45.86,18.94 L76.72,49.9 C78.2546286,51.176639 80.5094887,51.0725685 81.92,49.66 L84.04,47.54 C84.342557,47.2357475 84.342557,46.7442525 84.04,46.44 L80.6,43 L50,12.2 C48.4947593,10.7051092 46.0652407,10.7051092 44.56,12.2" id="Shape"></path>
            <path d="M78,10.76 L76,12.76 L65.34,23.42 L70.82,28.9 L81.48,18.24 C82.2042378,17.5160635 82.6111358,16.5340139 82.6111358,15.51 C82.6111358,14.4859861 82.2042378,13.5039365 81.48,12.78 L79.08,10.8 C78.7757475,10.497443 78.2842525,10.497443 77.98,10.8" id="Shape"></path>
            <path d="M45.62,43.1 C44.3380114,44.6295638 44.4333992,46.8841842 45.84,48.3 L48,50.48 C48.3042525,50.782557 48.7957475,50.782557 49.1,50.48 L52.54,47.04 L61.3,38.28 L56,32.78 L45.62,43.1 Z" id="Shape"></path>
            <path d="M90.32,3.86 C90.32,5.99181913 92.0481809,7.72 94.18,7.72 C96.3118191,7.72 98.04,5.99181913 98.04,3.86 C98.04,1.72818087 96.3118191,1.30536274e-16 94.18,0 C92.0481809,-1.30536274e-16 90.32,1.72818087 90.32,3.86" id="Shape"></path>
            <path d="M94.16,10.86 L91.06,10.86 C90.6370481,10.8708485 90.2998609,11.216909 90.3,11.64 L90.3,14.66 L90.3,46.66 C90.3,46.66 90.3,46.66 90.3,46.76 C90.3,48.8918191 92.0281809,50.62 94.16,50.62 L97.32,50.62 C97.7190822,50.5686439 98.0136081,50.2221429 98,49.82 L98,14.68 C97.9672219,12.560603 96.2396504,10.8597465 94.12,10.86" id="Shape"></path>
        </g>
    </g>
</svg>